<svg xmlns="http://www.w3.org/2000/svg" xmlns:xlink="http://www.w3.org/1999/xlink" width="500" zoomAndPan="magnify" viewBox="0 0 375 374.999991" height="500" preserveAspectRatio="xMidYMid meet" version="1.0"><defs><g/><clipPath id="75157566c7"><path d="M 53 59 L 322 59 L 322 329 L 53 329 Z M 53 59 " clip-rule="nonzero"/></clipPath><clipPath id="1121c8e312"><path d="M 243.894531 12.800781 L 366.957031 254.808594 L 130.964844 374.808594 L 7.902344 132.800781 Z M 243.894531 12.800781 " clip-rule="nonzero"/></clipPath><clipPath id="24e0d51bc7"><path d="M 243.894531 12.800781 L 366.957031 254.808594 L 130.964844 374.808594 L 7.902344 132.800781 Z M 243.894531 12.800781 " clip-rule="nonzero"/></clipPath><clipPath id="1fc16582ab"><path d="M 286.890625 106.980469 C 237.449219 50.484375 152.628906 43.546875 97.816406 91.515625 C 85.976562 101.878906 76.367188 114.199219 69.023438 128.023438 L 69.375 128.207031 L 69.023438 128.023438 C 56.445312 151.695312 51.480469 178.585938 54.65625 205.773438 C 57.902344 233.566406 69.492188 259.539062 88.167969 280.886719 C 137.5625 337.328125 222.296875 344.257812 277.054688 296.335938 C 331.875 248.363281 336.332031 163.476562 286.890625 106.980469 Z M 83.457031 255.515625 C 85.550781 257.90625 87.378906 259.777344 88.753906 261.109375 C 97.925781 269.972656 110.605469 270.652344 124.027344 271.367188 C 139.53125 272.195312 157.105469 273.136719 172.214844 287.191406 C 185.007812 299.097656 197.570312 309.515625 211.777344 314.253906 C 197.371094 309.96875 184.703125 300.199219 172.238281 289.355469 C 157.207031 276.277344 140.019531 274.78125 124.851562 273.460938 C 111.246094 272.273438 98.390625 271.15625 89.105469 262.023438 C 80.828125 253.882812 73.042969 243.316406 67.097656 230.9375 C 72.464844 241.769531 78.652344 250.03125 83.457031 255.515625 Z M 77.59375 247.035156 C 79.46875 249.554688 81.285156 251.773438 82.941406 253.671875 C 85.269531 256.332031 87.300781 258.375 88.789062 259.789062 C 97.738281 268.269531 110.179688 268.515625 123.351562 268.773438 C 139.261719 269.085938 157.289062 269.4375 172.558594 284.601562 C 185.097656 297.058594 196.730469 307.851562 210.601562 313.234375 C 197.015625 308.339844 184.910156 298.261719 172.582031 286.792969 C 157.332031 272.597656 139.652344 271.65625 124.050781 270.824219 C 110.734375 270.109375 98.15625 269.441406 89.132812 260.714844 C 87.601562 259.230469 82.945312 254.519531 77.59375 247.035156 Z M 171.886719 291.917969 C 157.132812 279.949219 140.476562 277.9375 125.777344 276.167969 C 111.835938 274.488281 98.664062 272.898438 89.085938 263.332031 C 81.628906 255.882812 74.597656 246.445312 68.925781 235.523438 C 74.011719 245.054688 79.59375 252.375 83.929688 257.328125 C 85.804688 259.472656 87.449219 261.175781 88.714844 262.421875 C 98.140625 271.691406 111.09375 272.820312 124.804688 274.015625 C 139.882812 275.332031 156.976562 276.820312 171.867188 289.773438 C 184.675781 300.917969 197.695312 310.929688 212.578125 315.09375 C 197.46875 311.386719 184.332031 302.011719 171.886719 291.914062 Z M 213.0625 315.828125 C 197.351562 312.667969 183.816406 303.746094 171.535156 294.480469 C 157.132812 283.609375 141.742188 281.25 126.859375 278.96875 C 112.519531 276.769531 98.972656 274.695312 89.058594 264.644531 C 81.621094 257.101562 74.609375 247.59375 68.945312 236.617188 C 74.195312 246.535156 79.96875 254.097656 84.363281 259.121094 C 86.035156 261.03125 87.511719 262.578125 88.679688 263.742188 C 98.398438 273.457031 111.667969 275.054688 125.710938 276.746094 C 141.046875 278.59375 156.902344 280.507812 171.523438 292.367188 C 184.207031 302.660156 197.609375 312.203125 213.066406 315.832031 Z M 84.519531 260.628906 C 85.855469 262.15625 87.234375 263.636719 88.632812 265.058594 C 98.6875 275.25 112.328125 277.34375 126.769531 279.554688 C 141.578125 281.828125 156.894531 284.175781 171.175781 294.957031 C 182.660156 303.621094 196.324219 312.71875 211.859375 316.214844 C 197.085938 313.417969 183.742188 305.832031 171.179688 297.046875 C 157.207031 287.265625 142.425781 284.527344 128.132812 281.875 C 113.320312 279.132812 99.332031 276.535156 89.03125 265.953125 C 80.878906 257.582031 73.21875 246.878906 67.304688 234.457031 C 71.957031 244.03125 77.8125 252.972656 84.515625 260.632812 Z M 84.886719 262.355469 C 86.09375 263.734375 87.332031 265.078125 88.59375 266.375 C 99.035156 277.097656 113.117188 279.710938 128.027344 282.476562 C 142.257812 285.113281 156.96875 287.839844 170.835938 297.542969 C 182.910156 305.992188 199.128906 315.925781 217.554688 317.785156 C 218.390625 317.871094 219.230469 317.917969 220.070312 317.96875 C 201.902344 317.355469 185.835938 309.300781 170.835938 299.605469 C 157.390625 290.910156 143.292969 287.863281 129.664062 284.917969 C 114.292969 281.589844 99.769531 278.449219 89.015625 267.257812 C 81.050781 258.976562 73.5625 248.46875 67.695312 236.320312 C 72.371094 245.835938 78.207031 254.71875 84.890625 262.351562 Z M 86.386719 270.722656 C 87.050781 271.480469 87.722656 272.226562 88.402344 272.96875 C 102.308594 288.070312 120.75 293.914062 140.273438 300.09375 C 149.757812 303.097656 159.566406 306.199219 169.136719 310.488281 C 188.457031 319.140625 206.777344 322.441406 224.34375 320.371094 C 206.820312 322.871094 188.476562 320.210938 169.0625 312.421875 C 161.285156 309.300781 153.359375 306.6875 145.691406 304.164062 C 124.28125 297.109375 104.054688 290.445312 88.882812 273.816406 C 85.425781 270.027344 82.136719 265.890625 79.0625 261.476562 C 81.363281 264.6875 83.800781 267.777344 86.378906 270.730469 Z M 78.429688 259.324219 C 80.820312 262.699219 83.375 265.945312 86.074219 269.027344 C 86.847656 269.914062 87.640625 270.792969 88.4375 271.652344 C 101.3125 285.5 118.402344 290.570312 136.496094 295.945312 C 147.347656 299.167969 158.574219 302.5 169.472656 307.902344 C 185.832031 316.007812 201.25 320.117188 216.113281 320.234375 C 201.15625 320.582031 185.644531 317.125 169.417969 309.859375 C 159.8125 305.558594 149.984375 302.445312 140.484375 299.4375 C 121.050781 293.285156 102.695312 287.472656 88.910156 272.503906 C 85.207031 268.480469 81.691406 264.070312 78.425781 259.328125 Z M 85.082031 263.910156 C 86.214844 265.203125 87.375 266.464844 88.554688 267.699219 C 99.445312 279.023438 114.058594 282.183594 129.527344 285.53125 C 143.101562 288.46875 157.140625 291.503906 170.492188 300.132812 C 188.550781 311.804688 203.238281 317.441406 218.105469 318.402344 C 200.28125 317.785156 184.535156 310.527344 170.484375 302.167969 C 157.6875 294.558594 144.382812 291.289062 131.511719 288.128906 C 115.453125 284.1875 100.285156 280.457031 88.988281 268.574219 C 83.660156 262.96875 78.554688 256.363281 73.996094 248.960938 C 77.328125 254.273438 81.039062 259.285156 85.085938 263.914062 Z M 85.425781 265.625 C 86.4375 266.777344 87.46875 267.910156 88.515625 269.015625 C 99.941406 281.039062 115.199219 284.785156 131.355469 288.753906 C 144.179688 291.902344 157.4375 295.160156 170.152344 302.722656 C 187.691406 313.15625 202.824219 318.328125 217.644531 318.964844 C 199.46875 318.746094 183.546875 312.039062 170.128906 304.730469 C 158.148438 298.207031 145.765625 294.828125 133.796875 291.5625 C 116.882812 286.949219 100.90625 282.59375 88.960938 269.878906 C 84.410156 265.046875 80.144531 259.613281 76.28125 253.691406 C 79.097656 257.882812 82.144531 261.878906 85.425781 265.625 Z M 85.753906 267.328125 C 86.644531 268.347656 87.554688 269.347656 88.480469 270.332031 C 100.546875 283.175781 116.609375 287.558594 133.621094 292.199219 C 145.554688 295.457031 157.898438 298.824219 169.816406 305.308594 C 182.253906 312.082031 196.832031 318.347656 213.347656 319.472656 C 199.433594 318.902344 185.011719 314.84375 169.777344 307.292969 C 158.824219 301.867188 147.574219 298.527344 136.691406 295.292969 C 118.691406 289.945312 101.691406 284.898438 88.941406 271.1875 C 84.960938 266.910156 81.210938 262.171875 77.746094 257.0625 C 80.246094 260.644531 82.917969 264.082031 85.761719 267.328125 Z M 86.691406 272.414062 C 87.242188 273.042969 87.800781 273.667969 88.363281 274.285156 C 103.660156 291.054688 123.96875 297.746094 145.472656 304.832031 C 153.128906 307.351562 161.046875 309.960938 168.800781 313.074219 C 185.375 319.722656 201.175781 322.648438 216.355469 321.851562 C 201.074219 323.113281 185.164062 320.835938 168.710938 314.976562 C 163.597656 313.15625 158.394531 311.433594 153.363281 309.765625 C 129.019531 301.710938 106.035156 294.101562 88.867188 275.117188 C 84.199219 269.949219 80.011719 264.457031 76.296875 258.722656 C 79.464844 263.53125 82.9375 268.113281 86.695312 272.414062 Z M 86.992188 274.109375 C 87.433594 274.609375 87.878906 275.113281 88.328125 275.605469 C 105.621094 294.734375 128.699219 302.371094 153.128906 310.460938 C 158.160156 312.125 163.359375 313.847656 168.464844 315.664062 C 185.058594 321.570312 201.09375 323.863281 216.496094 322.578125 C 200.984375 324.328125 184.835938 322.679688 168.351562 317.542969 L 165.882812 316.773438 C 138.015625 308.101562 109.195312 299.136719 88.84375 276.429688 C 88.496094 276.042969 88.160156 275.660156 87.816406 275.269531 C 84.203125 271.144531 80.898438 266.816406 77.871094 262.339844 C 80.695312 266.441406 83.734375 270.386719 86.996094 274.113281 Z M 87.238281 275.738281 C 87.582031 276.136719 87.933594 276.535156 88.285156 276.925781 C 108.777344 299.789062 137.691406 308.785156 165.660156 317.488281 L 168.128906 318.253906 C 184.710938 323.421875 200.957031 325.082031 216.5625 323.328125 C 200.84375 325.554688 184.476562 324.53125 167.988281 320.105469 C 141.03125 312.878906 110.550781 302.191406 88.8125 277.738281 C 88.582031 277.480469 88.359375 277.226562 88.132812 276.964844 C 85.679688 274.164062 83.371094 271.273438 81.1875 268.308594 C 83.109375 270.847656 85.125 273.328125 87.234375 275.738281 Z M 88.769531 280.359375 C 86.339844 277.578125 84.042969 274.71875 81.867188 271.789062 C 83.808594 274.34375 85.835938 276.84375 87.96875 279.277344 L 88.214844 279.558594 C 107.25 301.097656 133.914062 315.855469 167.464844 323.429688 C 183.285156 327 198.9375 327.636719 213.984375 325.480469 C 169.429688 333.148438 121.367188 317.597656 88.773438 280.359375 Z M 167.632812 322.671875 C 134.242188 315.140625 107.71875 300.460938 88.792969 279.046875 L 88.554688 278.777344 C 86.1875 276.066406 83.945312 273.28125 81.816406 270.425781 C 83.644531 272.824219 85.550781 275.167969 87.550781 277.449219 C 87.78125 277.714844 88.015625 277.976562 88.25 278.242188 C 110.117188 302.847656 140.730469 313.585938 167.792969 320.84375 C 187.03125 326.003906 206.109375 326.574219 224.191406 322.761719 C 206.140625 326.996094 187.015625 327.046875 167.632812 322.671875 Z M 275.308594 296.777344 C 275.09375 296.964844 274.875 297.144531 274.65625 297.324219 C 274.414062 297.519531 274.175781 297.722656 273.933594 297.917969 C 273.734375 298.082031 273.535156 298.246094 273.332031 298.402344 C 273.121094 298.566406 272.914062 298.738281 272.707031 298.902344 C 272.535156 299.035156 272.359375 299.164062 272.191406 299.292969 C 271.953125 299.476562 271.714844 299.648438 271.480469 299.832031 C 271.445312 299.855469 271.40625 299.882812 271.371094 299.910156 C 270.886719 300.269531 270.40625 300.621094 269.917969 300.96875 C 269.898438 300.984375 269.875 301 269.851562 301.015625 C 269.117188 301.53125 268.386719 302.035156 267.65625 302.53125 C 267.523438 302.621094 267.382812 302.714844 267.25 302.804688 C 266.855469 303.0625 266.457031 303.34375 266.0625 303.597656 C 265.957031 303.664062 265.855469 303.722656 265.753906 303.792969 C 264.703125 304.464844 263.65625 305.097656 262.617188 305.714844 C 262.253906 305.921875 261.898438 306.132812 261.539062 306.339844 C 260.777344 306.777344 260.019531 307.195312 259.265625 307.605469 C 258.683594 307.917969 258.105469 308.222656 257.527344 308.519531 C 257.453125 308.554688 257.382812 308.59375 257.308594 308.628906 C 257.136719 308.714844 256.972656 308.796875 256.804688 308.882812 C 217.34375 328.332031 193.898438 305.050781 172.933594 284.226562 C 157.515625 268.910156 139.371094 268.558594 123.363281 268.242188 C 110.296875 267.988281 97.953125 267.742188 89.160156 259.402344 C 84.824219 255.296875 55.527344 225.792969 56.027344 180.5625 C 56.136719 174.785156 56.699219 168.859375 57.792969 162.808594 C 57.839844 162.566406 57.878906 162.332031 57.925781 162.089844 C 58.117188 161.085938 58.335938 160.066406 58.554688 159.058594 C 58.765625 158.101562 58.972656 157.144531 59.207031 156.183594 C 59.304688 155.78125 59.414062 155.375 59.515625 154.972656 C 59.882812 153.527344 60.269531 152.082031 60.695312 150.632812 C 60.695312 150.632812 60.695312 150.632812 60.699219 150.628906 C 61.167969 149.035156 61.679688 147.441406 62.222656 145.847656 C 62.289062 145.664062 62.347656 145.484375 62.414062 145.300781 C 62.859375 144.011719 63.335938 142.726562 63.828125 141.441406 C 64.050781 140.875 64.269531 140.308594 64.496094 139.746094 C 64.726562 139.164062 64.972656 138.589844 65.214844 138.011719 C 65.320312 137.765625 65.421875 137.519531 65.523438 137.273438 C 65.570312 137.167969 65.613281 137.058594 65.660156 136.949219 C 65.988281 136.191406 66.316406 135.425781 66.660156 134.667969 C 66.707031 134.578125 66.742188 134.484375 66.785156 134.386719 C 66.808594 134.332031 66.835938 134.28125 66.859375 134.226562 C 66.964844 134.003906 67.074219 133.777344 67.179688 133.554688 C 67.441406 132.988281 67.71875 132.425781 67.992188 131.855469 C 68.050781 131.734375 68.113281 131.609375 68.171875 131.484375 C 68.292969 131.246094 68.410156 131.007812 68.527344 130.765625 C 68.625 130.582031 68.714844 130.398438 68.808594 130.214844 C 69.113281 129.609375 69.410156 128.996094 69.726562 128.394531 C 77.011719 114.6875 86.773438 102.585938 98.511719 92.3125 C 152.886719 44.726562 237.035156 51.621094 286.09375 107.679688 C 335.152344 163.730469 330.914062 248.152344 276.539062 295.738281 C 276.132812 296.09375 275.71875 296.433594 275.3125 296.785156 Z M 275.308594 296.777344 " clip-rule="nonzero"/></clipPath><linearGradient x1="-153.64151" gradientTransform="matrix(0.176432, 0.346967, -0.346967, 0.176432, 243.855129, 12.81998)" y1="339.92001" x2="866.678039" gradientUnits="userSpaceOnUse" y2="339.92001" id="abbed75214"><stop stop-opacity="1" stop-color="rgb(97.299194%, 82.398987%, 41.999817%)" offset="0"/><stop stop-opacity="1" stop-color="rgb(97.299194%, 82.398987%, 41.999817%)" offset="0.0625"/><stop stop-opacity="1" stop-color="rgb(97.299194%, 82.398987%, 41.999817%)" offset="0.078125"/><stop stop-opacity="1" stop-color="rgb(97.299194%, 82.398987%, 41.999817%)" offset="0.0859375"/><stop stop-opacity="1" stop-color="rgb(96.807861%, 81.988525%, 41.795349%)" offset="0.0898437"/><stop stop-opacity="1" stop-color="rgb(96.318054%, 81.578064%, 41.592407%)" offset="0.09375"/><stop stop-opacity="1" stop-color="rgb(94.642639%, 80.174255%, 40.898132%)" offset="0.0976562"/><stop stop-opacity="1" stop-color="rgb(92.967224%, 78.770447%, 40.203857%)" offset="0.101562"/><stop stop-opacity="1" stop-color="rgb(91.291809%, 77.366638%, 39.509583%)" offset="0.105469"/><stop stop-opacity="1" stop-color="rgb(89.616394%, 75.96283%, 38.815308%)" offset="0.109375"/><stop stop-opacity="1" stop-color="rgb(87.940979%, 74.559021%, 38.121033%)" offset="0.113281"/><stop stop-opacity="1" stop-color="rgb(86.26709%, 73.155212%, 37.426758%)" offset="0.117188"/><stop stop-opacity="1" stop-color="rgb(84.591675%, 71.751404%, 36.732483%)" offset="0.121094"/><stop stop-opacity="1" stop-color="rgb(82.91626%, 70.347595%, 36.038208%)" offset="0.125"/><stop stop-opacity="1" stop-color="rgb(81.240845%, 68.943787%, 35.343933%)" offset="0.128906"/><stop stop-opacity="1" stop-color="rgb(79.56543%, 67.541504%, 34.649658%)" offset="0.132812"/><stop stop-opacity="1" stop-color="rgb(77.890015%, 66.137695%, 33.955383%)" offset="0.136719"/><stop stop-opacity="1" stop-color="rgb(76.2146%, 64.733887%, 33.261108%)" offset="0.140625"/><stop stop-opacity="1" stop-color="rgb(74.539185%, 63.330078%, 32.566833%)" offset="0.144531"/><stop stop-opacity="1" stop-color="rgb(72.86377%, 61.92627%, 31.872559%)" offset="0.148438"/><stop stop-opacity="1" stop-color="rgb(71.188354%, 60.522461%, 31.178284%)" offset="0.152344"/><stop stop-opacity="1" stop-color="rgb(69.512939%, 59.118652%, 30.484009%)" offset="0.15625"/><stop stop-opacity="1" stop-color="rgb(67.837524%, 57.714844%, 29.789734%)" offset="0.160156"/><stop stop-opacity="1" stop-color="rgb(66.162109%, 56.312561%, 29.095459%)" offset="0.164062"/><stop stop-opacity="1" stop-color="rgb(64.486694%, 54.908752%, 28.401184%)" offset="0.167969"/><stop stop-opacity="1" stop-color="rgb(62.812805%, 53.504944%, 27.706909%)" offset="0.171875"/><stop stop-opacity="1" stop-color="rgb(61.13739%, 52.101135%, 27.012634%)" offset="0.175781"/><stop stop-opacity="1" stop-color="rgb(59.461975%, 50.697327%, 26.318359%)" offset="0.179688"/><stop stop-opacity="1" stop-color="rgb(57.78656%, 49.293518%, 25.624084%)" offset="0.183594"/><stop stop-opacity="1" stop-color="rgb(56.111145%, 47.889709%, 24.92981%)" offset="0.1875"/><stop stop-opacity="1" stop-color="rgb(54.43573%, 46.485901%, 24.235535%)" offset="0.191406"/><stop stop-opacity="1" stop-color="rgb(52.760315%, 45.082092%, 23.54126%)" offset="0.195312"/><stop stop-opacity="1" stop-color="rgb(51.0849%, 43.678284%, 22.846985%)" offset="0.199219"/><stop stop-opacity="1" stop-color="rgb(49.409485%, 42.276001%, 22.15271%)" offset="0.203125"/><stop stop-opacity="1" stop-color="rgb(47.73407%, 40.872192%, 21.458435%)" offset="0.207031"/><stop stop-opacity="1" stop-color="rgb(46.058655%, 39.468384%, 20.76416%)" offset="0.210937"/><stop stop-opacity="1" stop-color="rgb(44.38324%, 38.064575%, 20.069885%)" offset="0.214844"/><stop stop-opacity="1" stop-color="rgb(42.707825%, 36.660767%, 19.37561%)" offset="0.21875"/><stop stop-opacity="1" stop-color="rgb(41.03241%, 35.256958%, 18.681335%)" offset="0.222656"/><stop stop-opacity="1" stop-color="rgb(39.356995%, 33.853149%, 17.987061%)" offset="0.226562"/><stop stop-opacity="1" stop-color="rgb(37.68158%, 32.449341%, 17.292786%)" offset="0.230469"/><stop stop-opacity="1" stop-color="rgb(36.00769%, 31.045532%, 16.598511%)" offset="0.234375"/><stop stop-opacity="1" stop-color="rgb(34.332275%, 29.641724%, 15.904236%)" offset="0.238281"/><stop stop-opacity="1" stop-color="rgb(32.65686%, 28.239441%, 15.209961%)" offset="0.242188"/><stop stop-opacity="1" stop-color="rgb(30.981445%, 26.835632%, 14.515686%)" offset="0.246094"/><stop stop-opacity="1" stop-color="rgb(29.30603%, 25.431824%, 13.821411%)" offset="0.25"/><stop stop-opacity="1" stop-color="rgb(27.630615%, 24.028015%, 13.127136%)" offset="0.253906"/><stop stop-opacity="1" stop-color="rgb(25.9552%, 22.624207%, 12.432861%)" offset="0.257812"/><stop stop-opacity="1" stop-color="rgb(24.279785%, 21.220398%, 11.738586%)" offset="0.261719"/><stop stop-opacity="1" stop-color="rgb(22.60437%, 19.816589%, 11.044312%)" offset="0.265625"/><stop stop-opacity="1" stop-color="rgb(21.266174%, 18.695068%, 10.490417%)" offset="0.269531"/><stop stop-opacity="1" stop-color="rgb(19.929504%, 17.575073%, 9.936523%)" offset="0.273438"/><stop stop-opacity="1" stop-color="rgb(21.528625%, 18.914795%, 10.598755%)" offset="0.277344"/><stop stop-opacity="1" stop-color="rgb(23.127747%, 20.254517%, 11.260986%)" offset="0.28125"/><stop stop-opacity="1" stop-color="rgb(24.726868%, 21.594238%, 11.923218%)" offset="0.285156"/><stop stop-opacity="1" stop-color="rgb(26.325989%, 22.935486%, 12.586975%)" offset="0.289062"/><stop stop-opacity="1" stop-color="rgb(27.92511%, 24.275208%, 13.249207%)" offset="0.292969"/><stop stop-opacity="1" stop-color="rgb(29.524231%, 25.614929%, 13.911438%)" offset="0.296875"/><stop stop-opacity="1" stop-color="rgb(31.123352%, 26.954651%, 14.573669%)" offset="0.300781"/><stop stop-opacity="1" stop-color="rgb(32.722473%, 28.294373%, 15.237427%)" offset="0.304688"/><stop stop-opacity="1" stop-color="rgb(34.321594%, 29.634094%, 15.899658%)" offset="0.308594"/><stop stop-opacity="1" stop-color="rgb(35.920715%, 30.973816%, 16.563416%)" offset="0.3125"/><stop stop-opacity="1" stop-color="rgb(37.519836%, 32.313538%, 17.225647%)" offset="0.316406"/><stop stop-opacity="1" stop-color="rgb(39.118958%, 33.653259%, 17.887878%)" offset="0.320312"/><stop stop-opacity="1" stop-color="rgb(40.718079%, 34.992981%, 18.55011%)" offset="0.324219"/><stop stop-opacity="1" stop-color="rgb(42.3172%, 36.332703%, 19.213867%)" offset="0.328125"/><stop stop-opacity="1" stop-color="rgb(43.916321%, 37.672424%, 19.876099%)" offset="0.332031"/><stop stop-opacity="1" stop-color="rgb(45.515442%, 39.013672%, 20.539856%)" offset="0.335937"/><stop stop-opacity="1" stop-color="rgb(47.114563%, 40.353394%, 21.202087%)" offset="0.339844"/><stop stop-opacity="1" stop-color="rgb(48.713684%, 41.693115%, 21.864319%)" offset="0.34375"/><stop stop-opacity="1" stop-color="rgb(50.312805%, 43.032837%, 22.52655%)" offset="0.347656"/><stop stop-opacity="1" stop-color="rgb(51.911926%, 44.372559%, 23.190308%)" offset="0.351562"/><stop stop-opacity="1" stop-color="rgb(53.511047%, 45.71228%, 23.852539%)" offset="0.355469"/><stop stop-opacity="1" stop-color="rgb(55.110168%, 47.052002%, 24.516296%)" offset="0.359375"/><stop stop-opacity="1" stop-color="rgb(56.70929%, 48.391724%, 25.178528%)" offset="0.363281"/><stop stop-opacity="1" stop-color="rgb(58.308411%, 49.731445%, 25.840759%)" offset="0.367187"/><stop stop-opacity="1" stop-color="rgb(59.907532%, 51.071167%, 26.502991%)" offset="0.371094"/><stop stop-opacity="1" stop-color="rgb(61.506653%, 52.410889%, 27.166748%)" offset="0.375"/><stop stop-opacity="1" stop-color="rgb(63.105774%, 53.75061%, 27.828979%)" offset="0.378906"/><stop stop-opacity="1" stop-color="rgb(64.704895%, 55.090332%, 28.491211%)" offset="0.382812"/><stop stop-opacity="1" stop-color="rgb(66.304016%, 56.430054%, 29.153442%)" offset="0.386719"/><stop stop-opacity="1" stop-color="rgb(67.904663%, 57.771301%, 29.8172%)" offset="0.390625"/><stop stop-opacity="1" stop-color="rgb(69.503784%, 59.111023%, 30.479431%)" offset="0.394531"/><stop stop-opacity="1" stop-color="rgb(71.102905%, 60.450745%, 31.143188%)" offset="0.398438"/><stop stop-opacity="1" stop-color="rgb(72.702026%, 61.790466%, 31.80542%)" offset="0.402344"/><stop stop-opacity="1" stop-color="rgb(74.301147%, 63.130188%, 32.467651%)" offset="0.40625"/><stop stop-opacity="1" stop-color="rgb(75.900269%, 64.46991%, 33.129883%)" offset="0.410156"/><stop stop-opacity="1" stop-color="rgb(77.49939%, 65.809631%, 33.79364%)" offset="0.414062"/><stop stop-opacity="1" stop-color="rgb(79.098511%, 67.149353%, 34.455872%)" offset="0.417969"/><stop stop-opacity="1" stop-color="rgb(80.697632%, 68.489075%, 35.119629%)" offset="0.421875"/><stop stop-opacity="1" stop-color="rgb(82.296753%, 69.828796%, 35.78186%)" offset="0.425781"/><stop stop-opacity="1" stop-color="rgb(83.895874%, 71.168518%, 36.444092%)" offset="0.429688"/><stop stop-opacity="1" stop-color="rgb(85.494995%, 72.50824%, 37.106323%)" offset="0.433594"/><stop stop-opacity="1" stop-color="rgb(87.094116%, 73.849487%, 37.770081%)" offset="0.4375"/><stop stop-opacity="1" stop-color="rgb(88.693237%, 75.189209%, 38.432312%)" offset="0.441406"/><stop stop-opacity="1" stop-color="rgb(90.292358%, 76.528931%, 39.096069%)" offset="0.445312"/><stop stop-opacity="1" stop-color="rgb(91.891479%, 77.868652%, 39.758301%)" offset="0.449219"/><stop stop-opacity="1" stop-color="rgb(93.490601%, 79.208374%, 40.420532%)" offset="0.453125"/><stop stop-opacity="1" stop-color="rgb(95.089722%, 80.548096%, 41.082764%)" offset="0.457031"/><stop stop-opacity="1" stop-color="rgb(96.688843%, 81.887817%, 41.746521%)" offset="0.460938"/><stop stop-opacity="1" stop-color="rgb(95.570374%, 80.950928%, 41.282654%)" offset="0.464844"/><stop stop-opacity="1" stop-color="rgb(94.451904%, 80.014038%, 40.818787%)" offset="0.46875"/><stop stop-opacity="1" stop-color="rgb(92.692566%, 78.540039%, 40.089417%)" offset="0.472656"/><stop stop-opacity="1" stop-color="rgb(90.934753%, 77.06604%, 39.361572%)" offset="0.476563"/><stop stop-opacity="1" stop-color="rgb(89.175415%, 75.592041%, 38.632202%)" offset="0.480469"/><stop stop-opacity="1" stop-color="rgb(87.416077%, 74.118042%, 37.902832%)" offset="0.484375"/><stop stop-opacity="1" stop-color="rgb(85.656738%, 72.644043%, 37.173462%)" offset="0.488281"/><stop stop-opacity="1" stop-color="rgb(83.8974%, 71.17157%, 36.445618%)" offset="0.492187"/><stop stop-opacity="1" stop-color="rgb(82.138062%, 69.697571%, 35.716248%)" offset="0.496094"/><stop stop-opacity="1" stop-color="rgb(80.380249%, 68.223572%, 34.986877%)" offset="0.5"/><stop stop-opacity="1" stop-color="rgb(78.620911%, 66.749573%, 34.257507%)" offset="0.503906"/><stop stop-opacity="1" stop-color="rgb(76.861572%, 65.275574%, 33.529663%)" offset="0.507812"/><stop stop-opacity="1" stop-color="rgb(75.102234%, 63.801575%, 32.800293%)" offset="0.511719"/><stop stop-opacity="1" stop-color="rgb(73.342896%, 62.327576%, 32.070923%)" offset="0.515625"/><stop stop-opacity="1" stop-color="rgb(71.583557%, 60.853577%, 31.341553%)" offset="0.519531"/><stop stop-opacity="1" stop-color="rgb(69.825745%, 59.381104%, 30.613708%)" offset="0.523437"/><stop stop-opacity="1" stop-color="rgb(68.066406%, 57.907104%, 29.884338%)" offset="0.527344"/><stop stop-opacity="1" stop-color="rgb(66.307068%, 56.433105%, 29.154968%)" offset="0.53125"/><stop stop-opacity="1" stop-color="rgb(64.547729%, 54.959106%, 28.425598%)" offset="0.535156"/><stop stop-opacity="1" stop-color="rgb(62.788391%, 53.485107%, 27.697754%)" offset="0.539062"/><stop stop-opacity="1" stop-color="rgb(61.029053%, 52.011108%, 26.968384%)" offset="0.542969"/><stop stop-opacity="1" stop-color="rgb(59.27124%, 50.537109%, 26.239014%)" offset="0.546875"/><stop stop-opacity="1" stop-color="rgb(57.511902%, 49.06311%, 25.509644%)" offset="0.550781"/><stop stop-opacity="1" stop-color="rgb(55.752563%, 47.590637%, 24.781799%)" offset="0.554687"/><stop stop-opacity="1" stop-color="rgb(53.993225%, 46.116638%, 24.052429%)" offset="0.558594"/><stop stop-opacity="1" stop-color="rgb(52.233887%, 44.642639%, 23.323059%)" offset="0.5625"/><stop stop-opacity="1" stop-color="rgb(50.474548%, 43.16864%, 22.593689%)" offset="0.566406"/><stop stop-opacity="1" stop-color="rgb(48.716736%, 41.694641%, 21.865845%)" offset="0.570312"/><stop stop-opacity="1" stop-color="rgb(46.957397%, 40.220642%, 21.136475%)" offset="0.574219"/><stop stop-opacity="1" stop-color="rgb(45.198059%, 38.746643%, 20.407104%)" offset="0.578125"/><stop stop-opacity="1" stop-color="rgb(43.438721%, 37.272644%, 19.677734%)" offset="0.582031"/><stop stop-opacity="1" stop-color="rgb(41.679382%, 35.798645%, 18.94989%)" offset="0.585937"/><stop stop-opacity="1" stop-color="rgb(39.920044%, 34.324646%, 18.22052%)" offset="0.589844"/><stop stop-opacity="1" stop-color="rgb(38.162231%, 32.852173%, 17.49115%)" offset="0.59375"/><stop stop-opacity="1" stop-color="rgb(36.402893%, 31.378174%, 16.76178%)" offset="0.597656"/><stop stop-opacity="1" stop-color="rgb(34.643555%, 29.904175%, 16.033936%)" offset="0.601562"/><stop stop-opacity="1" stop-color="rgb(32.884216%, 28.430176%, 15.304565%)" offset="0.605469"/><stop stop-opacity="1" stop-color="rgb(31.124878%, 26.956177%, 14.575195%)" offset="0.609375"/><stop stop-opacity="1" stop-color="rgb(29.36554%, 25.482178%, 13.845825%)" offset="0.613281"/><stop stop-opacity="1" stop-color="rgb(27.607727%, 24.008179%, 13.117981%)" offset="0.617187"/><stop stop-opacity="1" stop-color="rgb(25.848389%, 22.53418%, 12.388611%)" offset="0.621094"/><stop stop-opacity="1" stop-color="rgb(24.08905%, 21.061707%, 11.659241%)" offset="0.625"/><stop stop-opacity="1" stop-color="rgb(22.329712%, 19.587708%, 10.929871%)" offset="0.628906"/><stop stop-opacity="1" stop-color="rgb(20.570374%, 18.113708%, 10.202026%)" offset="0.632812"/><stop stop-opacity="1" stop-color="rgb(21.582031%, 18.960571%, 10.621643%)" offset="0.636719"/><stop stop-opacity="1" stop-color="rgb(22.595215%, 19.80896%, 11.04126%)" offset="0.640625"/><stop stop-opacity="1" stop-color="rgb(24.664307%, 21.542358%, 11.898804%)" offset="0.644531"/><stop stop-opacity="1" stop-color="rgb(26.733398%, 23.277283%, 12.756348%)" offset="0.648437"/><stop stop-opacity="1" stop-color="rgb(28.80249%, 25.010681%, 13.613892%)" offset="0.652344"/><stop stop-opacity="1" stop-color="rgb(30.873108%, 26.745605%, 14.471436%)" offset="0.65625"/><stop stop-opacity="1" stop-color="rgb(32.9422%, 28.479004%, 15.328979%)" offset="0.660156"/><stop stop-opacity="1" stop-color="rgb(35.012817%, 30.212402%, 16.186523%)" offset="0.664062"/><stop stop-opacity="1" stop-color="rgb(37.081909%, 31.945801%, 17.044067%)" offset="0.667969"/><stop stop-opacity="1" stop-color="rgb(39.151001%, 33.680725%, 17.901611%)" offset="0.671875"/><stop stop-opacity="1" stop-color="rgb(41.220093%, 35.414124%, 18.759155%)" offset="0.675781"/><stop stop-opacity="1" stop-color="rgb(43.29071%, 37.149048%, 19.616699%)" offset="0.679688"/><stop stop-opacity="1" stop-color="rgb(45.359802%, 38.882446%, 20.474243%)" offset="0.683594"/><stop stop-opacity="1" stop-color="rgb(47.428894%, 40.615845%, 21.331787%)" offset="0.6875"/><stop stop-opacity="1" stop-color="rgb(49.497986%, 42.349243%, 22.189331%)" offset="0.691406"/><stop stop-opacity="1" stop-color="rgb(51.568604%, 44.084167%, 23.046875%)" offset="0.695312"/><stop stop-opacity="1" stop-color="rgb(53.637695%, 45.817566%, 23.904419%)" offset="0.699219"/><stop stop-opacity="1" stop-color="rgb(55.706787%, 47.55249%, 24.763489%)" offset="0.703125"/><stop stop-opacity="1" stop-color="rgb(57.775879%, 49.285889%, 25.621033%)" offset="0.707031"/><stop stop-opacity="1" stop-color="rgb(59.846497%, 51.019287%, 26.478577%)" offset="0.710938"/><stop stop-opacity="1" stop-color="rgb(61.915588%, 52.752686%, 27.336121%)" offset="0.714844"/><stop stop-opacity="1" stop-color="rgb(63.98468%, 54.48761%, 28.193665%)" offset="0.71875"/><stop stop-opacity="1" stop-color="rgb(66.053772%, 56.221008%, 29.051208%)" offset="0.722656"/><stop stop-opacity="1" stop-color="rgb(68.12439%, 57.955933%, 29.908752%)" offset="0.726562"/><stop stop-opacity="1" stop-color="rgb(70.193481%, 59.689331%, 30.766296%)" offset="0.730469"/><stop stop-opacity="1" stop-color="rgb(72.262573%, 61.422729%, 31.62384%)" offset="0.734375"/><stop stop-opacity="1" stop-color="rgb(74.331665%, 63.156128%, 32.481384%)" offset="0.738281"/><stop stop-opacity="1" stop-color="rgb(76.402283%, 64.891052%, 33.338928%)" offset="0.742188"/><stop stop-opacity="1" stop-color="rgb(78.471375%, 66.624451%, 34.196472%)" offset="0.746094"/><stop stop-opacity="1" stop-color="rgb(80.541992%, 68.359375%, 35.054016%)" offset="0.75"/><stop stop-opacity="1" stop-color="rgb(82.611084%, 70.092773%, 35.91156%)" offset="0.753906"/><stop stop-opacity="1" stop-color="rgb(84.680176%, 71.826172%, 36.769104%)" offset="0.757812"/><stop stop-opacity="1" stop-color="rgb(86.749268%, 73.55957%, 37.626648%)" offset="0.761719"/><stop stop-opacity="1" stop-color="rgb(88.819885%, 75.294495%, 38.485718%)" offset="0.765625"/><stop stop-opacity="1" stop-color="rgb(90.888977%, 77.027893%, 39.343262%)" offset="0.769531"/><stop stop-opacity="1" stop-color="rgb(92.958069%, 78.762817%, 40.200806%)" offset="0.773438"/><stop stop-opacity="1" stop-color="rgb(95.027161%, 80.496216%, 41.05835%)" offset="0.777344"/><stop stop-opacity="1" stop-color="rgb(97.097778%, 82.229614%, 41.915894%)" offset="0.78125"/><stop stop-opacity="1" stop-color="rgb(95.524597%, 80.912781%, 41.264343%)" offset="0.785156"/><stop stop-opacity="1" stop-color="rgb(93.952942%, 79.595947%, 40.612793%)" offset="0.789062"/><stop stop-opacity="1" stop-color="rgb(92.193604%, 78.121948%, 39.883423%)" offset="0.792969"/><stop stop-opacity="1" stop-color="rgb(90.434265%, 76.647949%, 39.154053%)" offset="0.796875"/><stop stop-opacity="1" stop-color="rgb(88.674927%, 75.17395%, 38.424683%)" offset="0.800781"/><stop stop-opacity="1" stop-color="rgb(86.917114%, 73.699951%, 37.696838%)" offset="0.804688"/><stop stop-opacity="1" stop-color="rgb(85.157776%, 72.225952%, 36.967468%)" offset="0.808594"/><stop stop-opacity="1" stop-color="rgb(83.398438%, 70.751953%, 36.238098%)" offset="0.8125"/><stop stop-opacity="1" stop-color="rgb(81.639099%, 69.277954%, 35.508728%)" offset="0.816406"/><stop stop-opacity="1" stop-color="rgb(79.879761%, 67.805481%, 34.780884%)" offset="0.820312"/><stop stop-opacity="1" stop-color="rgb(78.120422%, 66.331482%, 34.051514%)" offset="0.824219"/><stop stop-opacity="1" stop-color="rgb(76.36261%, 64.857483%, 33.322144%)" offset="0.828125"/><stop stop-opacity="1" stop-color="rgb(74.603271%, 63.383484%, 32.592773%)" offset="0.832031"/><stop stop-opacity="1" stop-color="rgb(72.843933%, 61.909485%, 31.864929%)" offset="0.835938"/><stop stop-opacity="1" stop-color="rgb(71.084595%, 60.435486%, 31.135559%)" offset="0.839844"/><stop stop-opacity="1" stop-color="rgb(69.325256%, 58.961487%, 30.406189%)" offset="0.84375"/><stop stop-opacity="1" stop-color="rgb(67.565918%, 57.487488%, 29.676819%)" offset="0.847656"/><stop stop-opacity="1" stop-color="rgb(65.808105%, 56.013489%, 28.948975%)" offset="0.851562"/><stop stop-opacity="1" stop-color="rgb(64.048767%, 54.53949%, 28.219604%)" offset="0.855469"/><stop stop-opacity="1" stop-color="rgb(62.289429%, 53.067017%, 27.490234%)" offset="0.859375"/><stop stop-opacity="1" stop-color="rgb(60.53009%, 51.593018%, 26.760864%)" offset="0.863281"/><stop stop-opacity="1" stop-color="rgb(58.770752%, 50.119019%, 26.03302%)" offset="0.867188"/><stop stop-opacity="1" stop-color="rgb(57.011414%, 48.64502%, 25.30365%)" offset="0.871094"/><stop stop-opacity="1" stop-color="rgb(55.253601%, 47.171021%, 24.57428%)" offset="0.875"/><stop stop-opacity="1" stop-color="rgb(53.494263%, 45.697021%, 23.84491%)" offset="0.878906"/><stop stop-opacity="1" stop-color="rgb(51.734924%, 44.223022%, 23.117065%)" offset="0.882813"/><stop stop-opacity="1" stop-color="rgb(49.975586%, 42.749023%, 22.387695%)" offset="0.886719"/><stop stop-opacity="1" stop-color="rgb(48.216248%, 41.27655%, 21.658325%)" offset="0.890625"/><stop stop-opacity="1" stop-color="rgb(46.456909%, 39.802551%, 20.928955%)" offset="0.894531"/><stop stop-opacity="1" stop-color="rgb(44.699097%, 38.328552%, 20.201111%)" offset="0.898438"/><stop stop-opacity="1" stop-color="rgb(42.939758%, 36.854553%, 19.471741%)" offset="0.902344"/><stop stop-opacity="1" stop-color="rgb(41.18042%, 35.380554%, 18.742371%)" offset="0.90625"/><stop stop-opacity="1" stop-color="rgb(39.421082%, 33.906555%, 18.013%)" offset="0.910156"/><stop stop-opacity="1" stop-color="rgb(37.661743%, 32.432556%, 17.285156%)" offset="0.914062"/><stop stop-opacity="1" stop-color="rgb(35.902405%, 30.958557%, 16.555786%)" offset="0.917969"/><stop stop-opacity="1" stop-color="rgb(34.144592%, 29.484558%, 15.826416%)" offset="0.921875"/><stop stop-opacity="1" stop-color="rgb(32.385254%, 28.010559%, 15.097046%)" offset="0.925781"/><stop stop-opacity="1" stop-color="rgb(30.625916%, 26.538086%, 14.369202%)" offset="0.929688"/><stop stop-opacity="1" stop-color="rgb(28.866577%, 25.064087%, 13.639832%)" offset="0.933594"/><stop stop-opacity="1" stop-color="rgb(27.107239%, 23.590088%, 12.910461%)" offset="0.9375"/><stop stop-opacity="1" stop-color="rgb(25.3479%, 22.116089%, 12.181091%)" offset="0.941406"/><stop stop-opacity="1" stop-color="rgb(23.590088%, 20.64209%, 11.453247%)" offset="0.945312"/><stop stop-opacity="1" stop-color="rgb(21.83075%, 19.168091%, 10.723877%)" offset="0.949219"/><stop stop-opacity="1" stop-color="rgb(20.071411%, 17.694092%, 9.994507%)" offset="0.953125"/><stop stop-opacity="1" stop-color="rgb(19.8349%, 17.495728%, 9.896851%)" offset="0.957031"/><stop stop-opacity="1" stop-color="rgb(19.599915%, 17.298889%, 9.799194%)" offset="0.960938"/><stop stop-opacity="1" stop-color="rgb(19.599915%, 17.298889%, 9.799194%)" offset="0.96875"/><stop stop-opacity="1" stop-color="rgb(19.599915%, 17.298889%, 9.799194%)" offset="1"/></linearGradient></defs><rect x="-37.5" width="450" fill="#ffffff" y="-37.499999" height="449.999989" fill-opacity="1"/><rect x="-37.5" width="450" fill="#000000" y="-37.499999" height="449.999989" fill-opacity="1"/><g clip-path="url(#75157566c7)"><g clip-path="url(#1121c8e312)"><g clip-path="url(#24e0d51bc7)"><g clip-path="url(#1fc16582ab)"><path fill="url(#abbed75214)" d="M 277.8125 -71.539062 L -70.011719 105.328125 L 110.003906 459.347656 L 457.828125 282.476562 Z M 277.8125 -71.539062 " fill-rule="nonzero"/></g></g></g></g><g fill="#f8d26b" fill-opacity="1"><g transform="translate(170.00975, 82.896743)"><g><path d="M 6.5 -5.097656 L 3.691406 -4.753906 L 4.613281 -8.875 Z M 11.160156 -1.359375 L 5.304688 -11.90625 L 3.230469 -11.652344 L 0.0820312 -0.0117188 L 2.707031 -0.328125 L 3.234375 -2.664062 L 7.460938 -3.175781 L 8.53125 -1.039062 Z M 11.160156 -1.359375 "/></g></g></g><g fill="#f8d26b" fill-opacity="1"><g transform="translate(193.382272, 81.326883)"><g><path d="M 3.722656 -3.742188 L 3.738281 -3.742188 L 6.117188 0.429688 L 9.230469 0.648438 L 6.320312 -3.675781 C 7.757812 -3.917969 8.976562 -5.085938 9.109375 -6.972656 C 9.257812 -9.085938 7.753906 -10.65625 5.949219 -10.785156 L 4.226562 -10.90625 L 3.621094 -10.949219 L 1.769531 -11.078125 L 0.984375 0.0703125 L 3.441406 0.242188 Z M 5.402344 -8.878906 C 6.125 -8.828125 6.835938 -8.152344 6.761719 -7.136719 C 6.6875 -6.070312 5.894531 -5.53125 5.171875 -5.582031 L 3.859375 -5.675781 L 4.089844 -8.972656 Z M 5.402344 -8.878906 "/></g></g></g><g fill="#f8d26b" fill-opacity="1"><g transform="translate(214.401409, 83.860476)"><g><path d="M 7.933594 -2.296875 L 5.203125 -3.03125 L 7.597656 -6.503906 Z M 10.859375 2.910156 L 9.371094 -9.058594 L 7.355469 -9.597656 L 0.078125 0.0195312 L 2.636719 0.707031 L 3.996094 -1.261719 L 8.109375 -0.15625 L 8.304688 2.226562 Z M 10.859375 2.910156 "/></g></g></g><g fill="#f8d26b" fill-opacity="1"><g transform="translate(236.666828, 91.14125)"><g><path d="M 7.164062 -0.148438 C 6.839844 0.519531 6.011719 0.792969 5.347656 0.46875 L 3.945312 -0.214844 L 5.125 -2.640625 L 6.53125 -1.957031 C 7.195312 -1.632812 7.480469 -0.796875 7.164062 -0.148438 Z M 8.515625 -4.679688 C 8.207031 -4.046875 7.414062 -3.773438 6.78125 -4.082031 L 6.011719 -4.457031 L 7.148438 -6.792969 L 7.917969 -6.417969 C 8.550781 -6.109375 8.832031 -5.332031 8.515625 -4.679688 Z M 9.398438 1.015625 C 10.058594 -0.34375 9.582031 -1.691406 8.589844 -2.507812 C 9.507812 -2.480469 10.324219 -3.03125 10.824219 -4.050781 C 11.492188 -5.425781 10.953125 -7.09375 9.238281 -7.929688 L 5.78125 -9.613281 L 0.886719 0.433594 L 4.949219 2.410156 C 6.871094 3.347656 8.554688 2.742188 9.398438 1.015625 Z M 9.398438 1.015625 "/></g></g></g><g fill="#f8d26b" fill-opacity="1"><g transform="translate(255.275105, 101.535489)"><g/></g></g><g fill="#f8d26b" fill-opacity="1"><g transform="translate(268.180048, 111.564305)"><g><path d="M 8.015625 1.984375 L 6.019531 -0.015625 L 9.835938 -1.824219 Z M 7.9375 7.960938 L 12.648438 -3.144531 L 11.175781 -4.621094 L 0.0585938 0.0585938 L 1.925781 1.933594 L 4.089844 0.910156 L 7.097656 3.925781 L 6.070312 6.085938 Z M 7.9375 7.960938 "/></g></g></g><g fill="#f8d26b" fill-opacity="1"><g transform="translate(283.800038, 129.027782)"><g><path d="M 5.242188 0.628906 L 6.207031 2.058594 C 7.21875 3.558594 9.222656 4.148438 11.101562 2.878906 C 12.859375 1.695312 13.171875 -0.457031 12.160156 -1.957031 L 11.195312 -3.386719 L 10.855469 -3.890625 L 9.816406 -5.433594 L 0.550781 0.816406 L 1.929688 2.863281 Z M 10.324219 -1.214844 C 10.726562 -0.613281 10.632812 0.363281 9.789062 0.933594 C 8.902344 1.527344 7.988281 1.234375 7.585938 0.632812 L 6.847656 -0.457031 L 9.585938 -2.304688 Z M 10.324219 -1.214844 "/></g></g></g><g fill="#f8d26b" fill-opacity="1"><g transform="translate(294.606437, 147.149742)"><g><path d="M 1.441406 3.136719 L 11.597656 -1.53125 L 10.566406 -3.773438 L 0.410156 0.894531 Z M 1.441406 3.136719 "/></g></g></g><g fill="#f8d26b" fill-opacity="1"><g transform="translate(300.805965, 162.774254)"><g/></g></g><g fill="#f8d26b" fill-opacity="1"><g transform="translate(119.910146, 215.649265)"><g><path d="M 92.578125 17.546875 C 85.617188 21.054688 78.5625 21.628906 71.40625 19.265625 C 63.800781 16.835938 57.25 11.660156 51.75 3.734375 C 48.8125 -0.484375 46.289062 -5.367188 44.1875 -10.921875 L 41.109375 -19.078125 L 18.5 -19.078125 L 13.421875 -7 C 13.097656 -6.164062 12.9375 -5.492188 12.9375 -4.984375 C 12.9375 -4.472656 13.046875 -3.910156 13.265625 -3.296875 C 13.492188 -2.691406 13.972656 -2.148438 14.703125 -1.671875 C 15.441406 -1.191406 16.257812 -0.953125 17.15625 -0.953125 L 17.921875 -0.953125 L 17.921875 0 L -2.59375 0 L -2.59375 -0.953125 L -1.734375 -0.953125 C -0.253906 -0.953125 1.203125 -1.382812 2.640625 -2.25 C 4.078125 -3.113281 5.273438 -4.410156 6.234375 -6.140625 L 27.59375 -54.921875 C 25.101562 -60.546875 22.453125 -64.410156 19.640625 -66.515625 C 17.273438 -68.304688 15.019531 -69.203125 12.875 -69.203125 C 10.738281 -69.203125 8.75 -68.878906 6.90625 -68.234375 L 6.703125 -69.203125 C 11.304688 -71.566406 15.71875 -72.75 19.9375 -72.75 C 25.175781 -72.75 29.867188 -70.703125 34.015625 -66.609375 C 38.109375 -62.585938 41.722656 -56.773438 44.859375 -49.171875 L 58.75 -14.859375 C 63.988281 -1.890625 69.359375 7.023438 74.859375 11.890625 C 77.085938 13.867188 79.382812 15.238281 81.75 16 C 84.113281 16.769531 86.109375 17.15625 87.734375 17.15625 C 89.367188 17.15625 90.953125 16.960938 92.484375 16.578125 Z M 20.125 -23.1875 L 39.671875 -23.1875 L 32.96875 -40.921875 C 32.644531 -41.816406 32.195312 -43.046875 31.625 -44.609375 C 31.050781 -46.179688 30.664062 -47.285156 30.46875 -47.921875 Z M 20.125 -23.1875 "/></g></g></g><g fill="#f8d26b" fill-opacity="1"><g transform="translate(172.619364, 232.081848)"><g><path d="M 92.359375 14.46875 C 87.929688 16.6875 83.222656 17.796875 78.234375 17.796875 C 73.804688 17.796875 69.773438 17.113281 66.140625 15.75 C 58.304688 12.851562 51.640625 7.207031 46.140625 -1.1875 C 44.722656 -3.226562 42.082031 -7.144531 38.21875 -12.9375 C 34.363281 -18.726562 31.867188 -22.414062 30.734375 -24 C 28.742188 -27.125 27.15625 -28.828125 25.96875 -29.109375 L 25.96875 -29.96875 C 26.019531 -29.96875 26.085938 -29.96875 26.171875 -29.96875 C 26.253906 -29.96875 26.351562 -29.96875 26.46875 -29.96875 C 26.582031 -29.96875 26.695312 -29.96875 26.8125 -29.96875 C 26.925781 -29.96875 27.066406 -29.96875 27.234375 -29.96875 C 27.410156 -29.96875 27.554688 -29.96875 27.671875 -29.96875 C 30.554688 -29.96875 33.222656 -30.617188 35.671875 -31.921875 C 39.359375 -33.960938 41.203125 -37.738281 41.203125 -43.25 C 41.203125 -47.269531 40.066406 -50.375 37.796875 -52.5625 C 35.523438 -54.75 32.800781 -55.84375 29.625 -55.84375 L 23.15625 -55.84375 L 23.15625 -6.21875 C 23.15625 -4.738281 23.691406 -3.472656 24.765625 -2.421875 C 25.847656 -1.367188 27.128906 -0.84375 28.609375 -0.84375 L 29.703125 -0.84375 L 29.703125 0 L 3.828125 0 L 3.828125 -0.84375 L 4.9375 -0.84375 C 6.351562 -0.84375 7.597656 -1.351562 8.671875 -2.375 C 9.753906 -3.40625 10.328125 -4.65625 10.390625 -6.125 L 10.390625 -53.375 C 10.328125 -54.851562 9.769531 -56.113281 8.71875 -57.15625 C 7.675781 -58.207031 6.414062 -58.734375 4.9375 -58.734375 L 3.828125 -58.734375 L 3.828125 -59.59375 L 33.03125 -59.59375 C 40.351562 -59.59375 46.023438 -57.914062 50.046875 -54.5625 C 53.234375 -51.957031 54.828125 -48.269531 54.828125 -43.5 C 54.828125 -38.726562 53.28125 -34.851562 50.1875 -31.875 C 47.09375 -28.894531 43.554688 -27.40625 39.578125 -27.40625 C 39.242188 -27.40625 38.875 -27.4375 38.46875 -27.5 C 40.800781 -26.25 42.75 -24.859375 44.3125 -23.328125 C 45.875 -21.796875 47.234375 -20.347656 48.390625 -18.984375 C 49.554688 -17.617188 50.550781 -16.410156 51.375 -15.359375 C 52.195312 -14.316406 53.285156 -12.925781 54.640625 -11.1875 C 56.003906 -9.457031 57.425781 -7.65625 58.90625 -5.78125 C 60.382812 -3.914062 62.015625 -2.003906 63.796875 -0.046875 C 65.585938 1.910156 67.570312 3.769531 69.75 5.53125 C 71.9375 7.289062 74.164062 8.738281 76.4375 9.875 C 81.257812 12.3125 86.566406 13.5625 92.359375 13.625 Z M 92.359375 14.46875 "/></g></g></g><path stroke-linecap="butt" transform="matrix(0.26009, 0.703458, -0.703458, 0.26009, 188.552541, 170.192202)" fill="none" stroke-linejoin="miter" d="M -0.000964699 1.501435 L 29.230969 1.497833 " stroke="#49422e" stroke-width="3" stroke-opacity="1" stroke-miterlimit="4"/></svg>